<svg xmlns="http://www.w3.org/2000/svg" viewBox="0 0 100 100" width="100%" height="100%">
  <g fill="#0F2241">
    <path d="M 50 2 L 2 44 C 0 46 1 50 5 50 L 12 50 L 12 94 C 12 96 14 98 17 98 L 83 98 C 86 98 88 96 88 94 L 88 50 L 95 50 C 99 50 100 46 98 44 Z M 78 88 L 22 88 L 22 44 L 50 19 L 78 44 Z" />
    <path d="M 68 20 L 68 8 C 68 7 69 6 71 6 L 79 6 C 81 6 82 7 82 8 L 82 32 Z" />
    <path d="M 50 32 C 50 32 70 30 70 52 C 70 71 50 82 50 82 C 50 82 30 71 30 52 C 30 30 50 32 50 32 Z" />
  </g>
  <g fill="#FFFFFF">
    <path d="M 36 52 L 40 56 L 36 60 L 42 58 C 46 62 53 62 57 56 C 53 51 46 51 42 55 Z" />
    <path d="M 46 53 L 49 49 L 51 53 Z" />
    <circle cx="53" cy="55" r="1" fill="#0F2241" />
  </g>
</svg>
